<?xml version="1.0" encoding="UTF-8"?>
<svg id="globe" xmlns="http://www.w3.org/2000/svg" width="65.374" height="65.374"
  viewBox="0 0 65.374 65.374">
  <path id="Path_3" data-name="Path 3"
    d="M4.16,30.644H14.335A56,56,0,0,1,15.61,20.429H6.839a28.429,28.429,0,0,0-2.68,10.215Zm5.054-14.3h7.5a37.861,37.861,0,0,1,2.615-6.289,27.376,27.376,0,0,1,2.439-3.812,28.7,28.7,0,0,0-12.552,10.1ZM32.687,0A32.687,32.687,0,1,0,65.374,32.687,32.687,32.687,0,0,0,32.687,0ZM30.644,4.4c-2.738.834-5.455,3.35-7.711,7.58a32.533,32.533,0,0,0-1.912,4.364h9.623Zm0,16.029H19.8a51.074,51.074,0,0,0-1.382,10.215H30.644ZM34.73,30.644V20.429H45.569a50.845,50.845,0,0,1,1.382,10.215ZM30.644,34.73H18.426A51.073,51.073,0,0,0,19.8,44.945H30.644ZM34.73,44.945V34.73H46.948a51.053,51.053,0,0,1-1.376,10.215Zm-4.086,4.086H21.021a32.432,32.432,0,0,0,1.912,4.364c2.255,4.229,4.976,6.741,7.711,7.58Zm-8.878,10.1a27.356,27.356,0,0,1-2.439-3.812,37.864,37.864,0,0,1-2.615-6.289h-7.5a28.7,28.7,0,0,0,12.552,10.1ZM6.839,44.945h8.769A55.777,55.777,0,0,1,14.333,34.73H4.159A28.335,28.335,0,0,0,6.839,44.945ZM43.608,59.131a28.7,28.7,0,0,0,12.552-10.1H48.666a37.909,37.909,0,0,1-2.619,6.289,27.326,27.326,0,0,1-2.439,3.812Zm.745-10.1H34.73V60.974c2.738-.834,5.455-3.35,7.711-7.58a32.6,32.6,0,0,0,1.912-4.364Zm5.413-4.086h8.769a28.3,28.3,0,0,0,2.68-10.215H51.041a55.773,55.773,0,0,1-1.275,10.215Zm1.275-14.3H61.216a28.434,28.434,0,0,0-2.68-10.215H49.766a56.161,56.161,0,0,1,1.275,10.215Zm-2.379-14.3a37.9,37.9,0,0,0-2.615-6.289,27.343,27.343,0,0,0-2.439-3.812,28.7,28.7,0,0,1,12.552,10.1H48.666Zm-4.311,0H34.73V4.4c2.738.834,5.455,3.35,7.711,7.58a32.533,32.533,0,0,1,1.912,4.364Z"
    fill="#0d0048" fill-rule="evenodd" />
</svg>