<?xml version="1.0" encoding="UTF-8"?>
<svg xmlns="http://www.w3.org/2000/svg" width="44.791" height="65.966" viewBox="0 0 44.791 65.966">
  <path id="lightning" d="M18.768,68.027a2.356,2.356,0,0,1-1.414-2.521l4.289-27.917H10.264a2.356,2.356,0,0,1-2.356-2.9L14.976,4.064A2.356,2.356,0,0,1,17.332,2.25H40.891A2.358,2.358,0,0,1,43.2,5.124l-4.077,18.33H50.314a2.284,2.284,0,0,1,1.86,3.675L21.547,67.179a2.356,2.356,0,0,1-1.86,1.037A2.567,2.567,0,0,1,18.768,68.027ZM33.235,28.165l4.712-21.2H19.217L13.234,32.877H27.158L23.411,57.1,45.6,28.165Z" transform="translate(-7.845 -2.25)" fill="#0d0048"/>
</svg>
