<?xml version="1.0" encoding="UTF-8"?>
<svg xmlns="http://www.w3.org/2000/svg" width="59.04" height="65.37" viewBox="0 0 59.04 65.37">
  <g id="security" transform="translate(-4.5 -2.25)">
    <path id="Path_1" data-name="Path 1"
      d="M15.75,18.664,12.836,15.75,11.25,17.336l4.5,4.5,9-9L23.164,11.25Z"
      transform="translate(16.02 14.575)" fill="#0e0049" />
    <path id="Path_2" data-name="Path 2"
      d="M34.02,67.62,18.827,59.931A25.49,25.49,0,0,1,4.5,37.27V6.919A4.8,4.8,0,0,1,9.42,2.25h49.2a4.8,4.8,0,0,1,4.92,4.669V37.27A25.49,25.49,0,0,1,49.213,59.931ZM9.42,6.919V37.27A20.855,20.855,0,0,0,21.145,55.812L34.02,62.328,46.9,55.814A20.854,20.854,0,0,0,58.62,37.27V6.919Z"
      transform="translate(0 0)" fill="#0e0049" />
  </g>
</svg>