<?xml version="1.0" encoding="UTF-8"?>
<svg xmlns="http://www.w3.org/2000/svg" width="59.038" height="65.374" viewBox="0 0 59.038 65.374">
  <path id="block-line"
    d="M61.815,15.844,34.4,3.193a2.109,2.109,0,0,0-1.771,0L5.223,15.844A2.109,2.109,0,0,0,4,17.762V53.607a2.109,2.109,0,0,0,1.223,1.919L32.634,68.177a2.109,2.109,0,0,0,1.771,0L61.815,55.526a2.109,2.109,0,0,0,1.223-1.919V17.762A2.109,2.109,0,0,0,61.815,15.844Zm-28.3-8.413L55.89,17.762,33.519,28.094,11.148,17.762ZM8.217,21.052,31.411,31.763V62.969L8.217,52.258ZM35.628,62.969V31.763L58.821,21.052V52.258Z"
    transform="translate(-4 -2.998)" fill="#100048" />
</svg>